<?xml version="1.0" encoding="UTF-8"?>
<svg width="1200pt" height="1200pt" version="1.1" viewBox="0 0 1200 1200" xmlns="http://www.w3.org/2000/svg">
 <path d="m977.06 642.84c0.23438-5.0625 0.375-10.078 0.375-15.141 0-208.08-169.31-377.39-377.39-377.39s-377.39 169.31-377.39 377.39c0 5.1562 0.23438 10.078 0.375 15.141-27.703 30.844-42.938 70.312-42.938 112.08 0 93 75.609 168.61 168.61 168.61 2.3906 0 4.7812-0.23438 7.2188-0.375 12.609 14.391 30 23.766 48.609 25.781 3.1406 0.46875 6.2344 0.60938 9.375 0.60938 41.625 0 76.078-33.469 77.156-74.859 0.14062-1.0781 0.14062-1.9219 0.14062-2.3906v-234.84c0-42.609-34.688-77.297-77.297-77.297-20.391 0-40.312 8.2969-54.469 22.688-1.3125 1.3125-2.5312 2.625-3.6094 3.8438-4.6875-0.23438-9.375-0.375-14.156-0.14062 19.781-126.94 128.29-221.06 258.47-221.06 130.22 0 238.69 94.078 258.47 221.06-4.7812-0.23438-9.4688 0-14.156 0.14062-1.0781-1.2188-2.2969-2.5312-3.6094-3.8438-14.297-14.391-34.219-22.688-54.609-22.688-42.609 0-77.297 34.688-77.297 77.297v234.84s0 1.3125 0.14062 2.3906c1.0781 41.391 35.531 74.859 77.156 74.859 3.1406 0 6.2344-0.14062 9-0.60938 18.938-2.1562 36.375-11.531 48.938-25.781 2.3906 0.14062 4.7812 0.375 7.2188 0.375 93 0 168.61-75.609 168.61-168.61 0-41.766-15.375-81.375-42.938-112.22zm-773.06 112.22c0-37.312 14.156-72.703 39.844-99.469 2.8594-3 5.7656-5.8594 8.7656-8.5312 18.375-16.312 40.547-27.703 64.453-33 3.9375-0.84375 7.9219-1.5469 12-2.1562h0.14062c4.0781-0.60938 8.1562-0.9375 12.375-1.2188-0.14062 0.46875-0.23438 0.9375-0.375 1.4531-0.9375 2.7656-1.6875 5.625-2.3906 8.5312-0.375 1.3125-0.70312 2.625-0.9375 4.0781-0.70312 4.3125-1.2188 8.625-1.2188 13.078v234.84c0 4.3125 0.46875 8.625 1.0781 12.844 0 0.46875 0.14062 0.9375 0.23438 1.4531 0.70312 3.9375 1.7812 7.7812 3.1406 11.625 0.14062 0.375 0.14062 0.70312 0.375 1.0781-76.453-3.7031-137.39-67.078-137.39-144.47zm263.06-117.52v235.92c-0.46875 28.781-24.375 52.219-53.297 52.219-2.0625 0-3.9375 0-6.375-0.375-14.391-1.6875-27.703-9.375-36.469-21.375-2.5312-3.4688-4.5469-7.0781-6.375-11.062-0.9375-2.3906-1.5469-4.7812-2.1562-7.3125-0.23438-0.84375-0.60938-1.6875-0.84375-2.625-0.70312-3.375-0.9375-6.9375-0.9375-10.453v-234.84c0-11.391 3.6094-22.219 10.547-31.781v-0.23438c1.3125-1.6875 2.8594-3.4688 5.1562-5.7656 9.8438-9.8438 23.531-15.609 37.453-15.609 29.391 0 53.297 23.859 53.297 53.297zm132.94-295.92c-144.37 0-264.61 105.84-283.45 247.78-0.60938 0.14062-1.2188 0.375-1.9219 0.46875-5.625 1.2188-11.297 2.5312-16.781 4.3125-0.14062 0-0.23438 0-0.46875 0.14062-5.3906 1.6875-10.688 3.7031-15.844 6-1.4531 0.60938-3 1.3125-4.4531 2.0625-4.0781 1.9219-8.0625 3.9375-12 6.2344-1.3125 0.70312-2.5312 1.4531-3.8438 2.1562-4.9219 3-9.8438 6.2344-14.391 9.7031-0.14062 0-0.23438 0.14063-0.375 0.23438 3.7031-191.63 160.78-346.45 353.29-346.45 192.47 0 349.55 154.78 353.29 346.45-0.14063 0-0.23438-0.14063-0.375-0.23438-4.6875-3.4688-9.4688-6.7031-14.391-9.7031-1.2188-0.70313-2.5312-1.4531-3.8438-2.1562-3.9375-2.2969-7.9219-4.3125-12-6.2344-1.4531-0.70312-2.8594-1.3125-4.3125-2.0625-5.2969-2.2969-10.547-4.3125-15.938-6.1406h-0.23437c-5.5312-1.7812-11.156-3.1406-16.781-4.3125-0.60938-0.14063-1.2188-0.375-1.9219-0.46875-18.844-141.84-139.08-247.78-283.45-247.78zm192.24 583.69c-2.0625 0.23438-3.9375 0.375-6 0.375-28.922 0-52.781-23.391-53.156-52.219v-235.82c0-29.391 23.859-53.297 53.297-53.297 14.062 0 27.703 5.625 37.547 15.609 2.2969 2.2969 3.8438 4.0781 5.2969 6.1406 6.7031 9.2344 10.312 20.156 10.312 31.547v234.84c0 7.2188-1.3125 14.062-3.9375 20.297-1.6875 4.0781-3.8438 7.6875-6.4688 11.297-8.7656 12-22.078 19.688-36.844 21.375zm66.375-25.922s0.14062-0.70312 0.23438-0.9375c1.3125-3.8438 2.5312-7.7812 3.2344-11.766 0-0.46875 0.14062-0.84375 0.23438-1.3125 0.70312-4.2188 1.0781-8.5312 1.0781-12.938v-234.84c0-4.4531-0.46875-8.7656-1.2188-13.078-0.23438-1.3125-0.60938-2.5312-0.9375-3.8438-0.70312-3-1.4531-6-2.3906-8.8594-0.14062-0.375-0.23438-0.84375-0.375-1.3125 4.2188 0.23438 8.3906 0.60938 12.469 1.2188s8.0625 1.3125 12 2.1562c23.766 5.2969 46.078 16.688 64.312 33 3 2.7656 6 5.5312 8.7656 8.5312h0.14062c25.547 27 39.703 62.297 39.703 99.469 0 77.297-60.938 140.63-137.39 144.47z"/>
</svg>
