<?xml version="1.0" encoding="UTF-8"?>
<svg width="1200pt" height="1200pt" version="1.1" viewBox="0 0 1200 1200" xmlns="http://www.w3.org/2000/svg">
 <path d="m1121.5 725.16c-8.0625-151.69-60.844-294.71-149.16-403.31-99-121.69-231.24-188.63-372.37-188.63s-273.37 67.078-372.37 188.76c-88.172 108.47-141 251.48-149.16 403.18-18.609 15.844-30.469 39.375-30.469 65.625v123.14c0 47.531 38.625 86.156 86.156 86.156h41.156c20.391 39.609 61.688 66.703 109.22 66.703 67.688 0 122.86-55.078 122.86-122.86v-183.14c0-67.688-55.078-122.86-122.86-122.86-47.531 0-88.688 27.141-109.22 66.703h-11.859c11.156-124.78 56.531-241.78 128.63-330.37 82.781-101.77 192.14-157.92 307.92-157.92s225.14 56.062 307.92 157.92c72.141 88.688 117.47 205.55 128.63 330.37h-11.859c-20.391-39.609-61.688-66.703-109.22-66.703-67.688 0-122.86 55.078-122.86 122.86v183.24c0 67.688 55.078 122.86 122.86 122.86 47.531 0 88.688-27.141 109.22-66.703h41.156c47.531 0 86.156-38.625 86.156-86.156v-123.24c0-26.25-11.859-49.781-30.469-65.625zm-837.14-64.688c55.312 0 100.31 45 100.31 100.31v183.24c0 55.312-45 100.31-100.31 100.31s-100.31-45-100.31-100.31v-183.24c0.14062-55.312 45.141-100.31 100.31-100.31zm-117.94 317.06h-32.156c-35.062 0-63.609-28.547-63.609-63.609v-123.14c0-35.062 28.547-63.609 63.609-63.609h32.156c-3 10.688-4.7812 21.938-4.7812 33.609v183.24c-0.046875 11.672 1.6406 22.828 4.7812 33.516zm759-617.39c-87.141-107.3-202.69-166.22-325.45-166.22-122.76 0-238.31 59.062-325.45 166.22-75.234 92.531-122.53 214.55-133.78 344.63h-6.6094c-11.391 0-22.219 2.2969-32.156 6.2344 10.453-141.24 60.844-273.71 143.06-374.86 94.547-116.39 220.55-180.37 354.84-180.37 134.29 0 260.29 64.078 354.84 180.37 82.219 101.16 132.61 233.63 143.06 374.86-9.9375-3.9375-20.766-6.2344-32.156-6.2344h-6.6094c-11.203-130.08-58.359-252.14-133.6-344.63zm-9.8438 684.24c-55.312 0-100.31-45-100.31-100.31v-183.28c0-55.312 45-100.31 100.31-100.31s100.31 45 100.31 100.31v183.24c-0.14062 55.359-45.141 100.36-100.31 100.36zm213.84-130.45c0 35.062-28.547 63.609-63.609 63.609h-32.297c3-10.688 4.7812-21.938 4.7812-33.609l0.046876-183.14c0-11.625-1.6875-22.922-4.7812-33.609h32.297c35.062 0 63.609 28.547 63.609 63.609z"/>
</svg>
