<?xml version="1.0" encoding="UTF-8"?>
<svg width="1200pt" height="1200pt" version="1.1" viewBox="0 0 1200 1200" xmlns="http://www.w3.org/2000/svg">
 <path d="m1121.2 969.84-135.71-526.22c-2.3906-9.1406-8.1562-16.922-15.844-21.375-6.9375-4.0781-14.859-5.2969-22.453-3.2344l-81.141 20.859c-4.6875 1.2188-8.8594 3.7031-12.234 6.8438-3.8438-14.297-16.781-24.844-32.297-24.844h-95.156c-3.375 0-6.4688 0.60937-9.4688 1.5469v-58.219c0-19.781-16.078-35.859-35.859-35.859h-99.141c-19.781 0-35.859 16.078-35.859 35.859v17.156c-5.5312-2.625-11.625-4.2188-18.141-4.2188h-81.844c-6.6094 0-12.703 1.6875-18.234 4.3125v-52.312c0-21.234-17.297-38.531-38.531-38.531h-109.78c-5.1562 0-10.078 1.0781-14.625 2.8594v-95.062c0-15.469-12.609-28.078-28.078-28.078l-130.82 0.14063c-15.469 0-28.078 12.609-28.078 28.078v809.39c0 10.547 8.5312 19.078 19.078 19.078l71.062 0.046875h536.9v0.14062h131.63c10.219 0 18.469-8.2969 18.469-18.469v-488.81l125.06 485.29c3.4688 13.453 15.141 22.547 27.609 22.547 2.0625 0 4.2188-0.23438 6.2344-0.70312l88.312-22.781c14.391-4.125 22.922-19.969 18.938-35.438zm-551.16-212.9h122.86v246.94l-122.86 0.046875zm122.86-24h-122.86v-182.86h122.86zm-111-379.64h99.141c6.6094 0 11.859 5.2969 11.859 11.859v160.92h-122.86v-16.688h0.14062v-89.062c0-0.375-0.14062-0.70312-0.14062-1.2188v-54c0-6.5625 5.2969-11.812 11.859-11.812zm-135.79 48.844h81.844c9.6094 0 17.531 7.5469 18.141 17.062v584.76h-118.22l-0.046875-492.19v-91.453c0-10.031 8.1562-18.188 18.281-18.188zm-181.22 50.719h138.94v391.45h-138.94zm0.09375-53.719v-69c0-8.0625 6.4688-14.531 14.531-14.531h109.78c8.0625 0 14.531 6.4688 14.531 14.531v98.766l-138.94-0.046875v-29.766zm-96.938 604.78h-66.141v-804.47c0-2.2969 1.7812-4.0781 4.0781-4.0781h130.78c2.2969 0 4.0781 1.7812 4.0781 4.0781v804.47zm96.844-135.61h138.94v135.61h-138.94zm566.16 135.74h-83.297v-0.14062h-30.844v-548.63c0-5.2969 4.2188-9.4688 9.4688-9.4688h95.156c5.2969 0 9.4688 4.2188 9.4688 9.4688zm246.24-108.14-94.781 23.531-94.922-368.68 94.781-23.391zm-205.18-432.84 81.141-20.859c0.375-0.14062 0.84375-0.14062 1.2188-0.14062 1.2188 0 2.2969 0.46875 3 0.9375 2.2969 1.3125 3.9375 3.8438 4.7812 6.7031l14.062 54.609-94.781 23.391-13.781-53.625c-1.3125-5.1562 0.75-10.031 4.3594-11.016zm223.87 518.86-87.938 22.688c-1.3125 0.46875-3.8438-1.2188-4.6875-4.4531l-14.859-57.609 94.781-23.531 14.625 56.766c0.84375 3.0469-0.46875 5.8125-1.9219 6.1406z"/>
 <path d="m296.16 530.39v240.37c0 2.3906 1.9219 4.3125 4.3125 4.3125h69c2.3906 0 4.3125-1.9219 4.3125-4.3125v-240.37c0-2.3906-1.9219-4.3125-4.3125-4.3125h-69c-2.3906 0-4.3125 1.9219-4.3125 4.3125zm53.625 220.69h-29.625v-201h29.625z"/>
 <path d="m133.45 701.86h69c2.3906 0 4.3125-1.9219 4.3125-4.3125v-387.71c0-2.3906-1.9219-4.3125-4.3125-4.3125h-69c-2.3906 0-4.3125 1.9219-4.3125 4.3125v387.71c0 2.3906 1.9219 4.3125 4.3125 4.3125zm19.688-372.32h29.625v348.37h-29.625z"/>
</svg>
