<?xml version="1.0" encoding="UTF-8"?>
<svg width="1200pt" height="1200pt" version="1.1" viewBox="0 0 1200 1200" xmlns="http://www.w3.org/2000/svg">
 <path d="m882.61 198.19c308.76 178.55 308.76 625.13 0 803.68l-25.219-43.641c275.26-159.14 275.26-557.26 0-716.39zm-314.63 859.87-245.44-259.26v-397.6l246.05-259.87 0.046875 0.046875c6.75-7.125 17.672-1.9219 17.672 8.5781v900.19c0 8.1094-8.2969 17.156-18.328 7.9219zm-263.44-241.64 245.76 259.69c22.453 23.719 61.266 7.0781 61.266-25.969l0.046875-900.24c0-33.047-38.859-49.688-61.266-25.969l0.046875 0.046875-245.86 259.6h-203.53c-22.641 0-41.109 18.469-41.109 41.109v350.63c0 22.641 18.469 41.109 41.109 41.109l203.53-0.046875zm-7.3125-407.53v382.18l-196.22 0.046875c-8.6719 0-15.797-7.125-15.797-15.797l0.046875-350.63c0-8.6719 7.125-15.797 15.797-15.797zm774.14-58.594c-45.047-75.703-109.92-138.19-187.4-180.28-6-3.2812-13.547-1.1719-16.969 4.7812l-38.016 65.812c-3.2812 6.1406-0.98438 13.781 5.1562 17.109 272.53 146.44 272.68 538.18 0 684.56v0.046875c-6.375 3.5625-8.4375 11.297-4.9688 17.391l37.688 65.25c3.3281 6.0938 10.969 8.3906 17.109 5.0625 243.79-132.71 329.34-441.24 187.4-679.74zm-271.45 534.61c229.97-120.71 228.98-450 0-569.81-6.0938-3.1875-13.547-0.89062-16.875 5.0625l-37.734 65.391c-3.5625 6.1406-1.4062 13.922 5.25 17.531v0.046875c161.26 81.844 160.45 312.61 0 393.79-6.6094 3.3281-9.0469 11.438-4.8281 18.234l37.453 64.875c3.375 5.8594 10.781 7.9688 16.734 4.875zm104.58-131.76c85.828-141.89 37.969-326.86-105.66-409.87l-25.219 43.641c163.78 94.688 163.82 331.5 0 426.19l25.219 43.641c43.312-25.031 79.734-60.797 105.66-103.59zm-189.05-13.312c-5.8594 2.7188-12.891 0.5625-16.219-5.1562l-37.922-65.672c-4.3594-7.2656-0.9375-16.125 6.6562-18.703 47.672-16.219 47.812-84.328 0-100.64-7.5469-2.5781-10.875-11.391-6.8906-18.281l38.016-65.812c3.1406-5.7656 10.312-8.2031 16.359-5.3906 118.64 54.844 119.06 224.48 0 279.66zm43.969-70.594c-11.156 17.438-26.344 31.969-44.344 42.375l-25.172-43.641c52.312-30.188 52.312-105.75 0-135.94l25.172-43.641c63.656 36.75 83.672 119.25 44.344 180.84z" fill-rule="evenodd"/>
</svg>
