<?xml version="1.0" encoding="UTF-8"?>
<svg width="1200pt" height="1200pt" version="1.1" viewBox="0 0 1200 1200" xmlns="http://www.w3.org/2000/svg">
 <path d="m600 103.86c-139.73 0.77734-273.66 55.98-373.36 153.89-99.703 97.906-157.32 230.81-160.64 370.51-0.082031 6.3672 1.9414 12.59 5.7539 17.691 3.8086 5.1055 9.1992 8.8125 15.332 10.543 2.7266 75.547 22.121 149.55 56.793 216.73-9.7148 12.422-12.98 28.703-8.8086 43.91l29.125 105.1v-0.003906c2.9375 10.578 9.2578 19.898 17.996 26.543 8.7383 6.6406 19.414 10.238 30.387 10.238h77.305c7.2812 14.062 19.18 25.191 33.695 31.516 14.516 6.3281 30.766 7.4648 46.023 3.2266 1.8359-0.44531 3.6406-0.99609 5.4102-1.6562l61.199-23.449c18.547-7.1289 33.355-21.562 40.953-39.922 7.5977-18.359 7.3203-39.031-0.76562-57.184l-99.801-223.94c-8.0547-18.027-23.707-31.539-42.719-36.871-19.008-5.332-39.402-1.9375-55.66 9.2695l-31.523 21.73c-14.242 9.9531-25.125 23.996-31.211 40.273-6.0859 16.273-7.0859 34.012-2.8672 50.867l-5.3984 2.7344-0.003906 0.003906c-26.891-52.852-42.559-110.69-46.02-169.89 6.0312-0.51953 11.734-2.9727 16.262-6.9961 6.4648-6.043 10.008-14.586 9.7188-23.434 0-109.48 43.492-214.48 120.91-291.89 77.414-77.414 182.41-120.91 291.89-120.91 109.48 0 214.48 43.492 291.89 120.91 77.414 77.414 120.91 182.41 120.91 291.89-0.30078 8.8633 3.2422 17.422 9.7188 23.484 4.5312 4.0117 10.238 6.4453 16.273 6.9336-3.4609 59.219-19.133 117.08-46.035 169.95l-5.3984-2.7344c4.2227-16.867 3.2266-34.621-2.8633-50.906-6.0898-16.289-16.984-30.34-31.242-40.297l-31.449-21.719c-16.266-11.211-36.676-14.602-55.695-9.2539-19.016 5.3477-34.668 18.879-42.707 36.926l-99.777 223.87c-8.0859 18.152-8.3633 38.824-0.76562 57.184 7.5977 18.359 22.406 32.793 40.953 39.922l59.93 22.992 1.2969 0.45703h-0.003906c1.5703 0.59375 3.1758 1.1016 4.8008 1.5234 6.1562 1.7031 12.512 2.5703 18.898 2.5781 12.645-0.011719 25.047-3.4844 35.855-10.043 10.812-6.5586 19.621-15.949 25.477-27.156h77.305c10.973 0 21.641-3.5938 30.375-10.23 8.7383-6.6406 15.059-15.957 17.996-26.527l29.125-105.07c4.1836-15.215 0.92188-31.512-8.7969-43.945 34.668-67.184 54.062-141.2 56.797-216.75 6.1406-1.7148 11.547-5.4102 15.371-10.512 3.8242-5.1016 5.8594-11.324 5.7852-17.699-3.3125-139.7-60.934-272.61-160.64-370.51-99.699-97.91-233.63-153.11-373.36-153.89zm-412.67 912-29.137-105.16c-1.5977-5.8398-1.125-12.051 1.3398-17.582 2.4609-5.5273 6.7617-10.035 12.172-12.754l35.34-17.844c0.20312-0.097657 0.42188-0.13281 0.61328-0.23828 0.19141-0.10938 0.13281-0.13281 0.21484-0.17969l12-6.0703 60.73 178.99-68.027-0.003906c-5.7383 0.058593-11.336-1.793-15.906-5.2656-4.5703-3.4688-7.8555-8.3633-9.3398-13.91zm73.066-254.46 31.488-21.695c7.0586-4.8711 15.426-7.4805 24-7.4883 3.9023 0.003906 7.7852 0.53906 11.547 1.5859 12.141 3.4102 22.137 12.055 27.262 23.578l99.781 223.93c5.4141 12.137 5.6016 25.961 0.51953 38.242-5.0781 12.277-14.98 21.926-27.387 26.688l-58.98 22.656-1.6797 0.57422v0.003906c-1.043 0.40625-2.1094 0.74219-3.1914 1.0078-10.984 2.9805-22.684 1.8008-32.852-3.3047-10.172-5.1094-18.098-13.789-22.266-24.379l-0.14453-0.35938v-0.070312c-0.19141-0.48047-0.46875-1.1172-0.61328-1.3906l-69.602-205.41-1.1992-3.7422-0.070312-0.21484v-0.007813c-4.1992-12.66-4.1914-26.336 0.023437-38.988 4.2148-12.652 12.414-23.602 23.363-31.215zm-97.32 96.457c-31.027-61.609-48.668-129.09-51.766-198l25.766 3.2656h-0.003906c3.1797 63.82 19.809 126.25 48.793 183.2zm900-194.5 25.777-3.5156c-3.0977 68.914-20.742 136.39-51.766 198l-22.801-11.508c28.91-56.891 45.5-119.24 48.684-182.98zm-227.36 407.04c-0.89453-0.23047-1.7773-0.51953-2.6406-0.86328l-60.66-23.23c-12.402-4.7617-22.309-14.414-27.387-26.691-5.082-12.277-4.8945-26.105 0.51953-38.242l99.781-223.93v0.003906c5.1367-11.523 15.133-20.164 27.277-23.582 12.141-3.4141 25.176-1.25 35.566 5.9062l31.43 21.609c10.965 7.6055 19.176 18.555 23.406 31.211 4.2266 12.66 4.2461 26.344 0.050782 39.016l-0.070313 0.21484-71.148 209.79c-0.10938 0.20313-0.19141 0.43359-0.28906 0.63672v0.13281l-0.14453 0.33594v-0.003906c-4.1875 10.707-12.207 19.473-22.504 24.59-10.293 5.1211-22.121 6.2266-33.188 3.1055zm206.08-159.6-29.137 105.13c-1.4844 5.5312-4.7656 10.414-9.3281 13.879-4.5586 3.4648-10.145 5.3125-15.871 5.2578h-67.922l60.625-179.02 12 6c0.085938 0.058593 0.13281 0.14453 0.21484 0.17969 0.085938 0.035156 0.39453 0.14453 0.60156 0.23828l35.316 17.832v0.003906c5.4375 2.7266 9.7539 7.2617 12.219 12.824 2.4609 5.5625 2.9141 11.809 1.2812 17.668zm63.602-277.2-3.6016 0.45703h-0.38281c-0.44531 0-0.81641 0.20312-1.1992 0.23828l-50.699 6.4453-6.4336 1.1992h-0.003906c-1.543 0.33203-3.1523-0.042968-4.3906-1.0195-1.1328-1.1328-1.8008-2.6484-1.8711-4.25v-1.3672c-0.054688-115.85-46.125-226.93-128.08-308.81-81.949-81.879-193.07-127.85-308.92-127.79-115.84 0.050781-226.93 46.121-308.8 128.07-81.879 81.953-127.85 193.07-127.8 308.92 0.16406 1.918-0.49219 3.8164-1.8125 5.2227-1.0156 0.88672-2.3672 1.3008-3.707 1.125l-6.0977-0.82812h0.003906c-1.1367-0.38281-2.3203-0.60156-3.5195-0.64844-0.15625 0-0.28906 0.097657-0.44531 0.10938l-47.902-6.5508-5.1719-0.52734c-2.5117-0.21875-4.4727-2.2773-4.5586-4.8008 2.4258-133.66 57.223-261.02 152.61-354.69 95.379-93.664 223.71-146.14 357.39-146.14s262.02 52.477 357.39 146.14c95.383 93.664 150.18 221.03 152.61 354.69-0.089844 2.5273-2.0508 4.5898-4.5703 4.8008z"/>
</svg>
